HIERARCHY
ROOT Hips
{
	OFFSET -21.947001 39.810204 44.525997
	CHANNELS 6 Xposition Yposition Zposition Zrotation Xrotation Yrotation
	JOINT Chest
	{
		OFFSET -0.201599 0.334099 6.453201
		CHANNELS 6 Xposition Yposition Zposition Zrotation Xrotation Yrotation
		JOINT Chest2
		{
			OFFSET 0.000000 0.000000 3.568001
			CHANNELS 6 Xposition Yposition Zposition Zrotation Xrotation Yrotation
			JOINT Neck
			{
				OFFSET 0.000000 0.000000 8.296402
				CHANNELS 6 Xposition Yposition Zposition Zrotation Xrotation Yrotation
				JOINT Head
				{
					OFFSET 0.000000 0.000000 2.173901
					CHANNELS 6 Xposition Yposition Zposition Zrotation Xrotation Yrotation
					End Site
					{
						OFFSET 0.000000 0.000000 7.891998
					}
				}
			}
			JOINT LeftCollar
			{
				OFFSET 1.927601 0.221401 6.049000
				CHANNELS 6 Xposition Yposition Zposition Zrotation Xrotation Yrotation
				JOINT LeftShoulder
				{
					OFFSET 4.959700 0.000000 0.000000
					CHANNELS 6 Xposition Yposition Zposition Zrotation Xrotation Yrotation
					JOINT LeftElbow
					{
						OFFSET 0.000000 0.000000 -8.654202
						CHANNELS 6 Xposition Yposition Zposition Zrotation Xrotation Yrotation
						JOINT LeftWrist
						{
							OFFSET 0.000000 0.000000 -13.864101
							CHANNELS 6 Xposition Yposition Zposition Zrotation Xrotation Yrotation
							End Site
							{
								OFFSET 0.000000 0.000000 -2.173901
							}
						}
					}
				}
			}
			JOINT RightCollar
			{
				OFFSET -3.155701 -0.764999 6.687801
				CHANNELS 6 Xposition Yposition Zposition Zrotation Xrotation Yrotation
				JOINT RightShoulder
				{
					OFFSET -3.592899 0.000000 0.000000
					CHANNELS 6 Xposition Yposition Zposition Zrotation Xrotation Yrotation
					JOINT RightElbow
					{
						OFFSET 0.000000 0.000000 -10.352398
						CHANNELS 6 Xposition Yposition Zposition Zrotation Xrotation Yrotation
						JOINT RightWrist
						{
							OFFSET 0.000000 0.000000 -12.750301
							CHANNELS 6 Xposition Yposition Zposition Zrotation Xrotation Yrotation
							End Site
							{
								OFFSET 0.000000 0.000000 -2.173901
							}
						}
					}
				}
			}
		}
	}
	JOINT LeftHip
	{
		OFFSET 2.460600 -0.518101 -2.735500
		CHANNELS 6 Xposition Yposition Zposition Zrotation Xrotation Yrotation
		JOINT LeftKnee
		{
			OFFSET 0.000000 -0.000004 -17.005899
			CHANNELS 6 Xposition Yposition Zposition Zrotation Xrotation Yrotation
			JOINT LeftAnkle
			{
				OFFSET 0.000000 0.000000 -19.194401
				CHANNELS 6 Xposition Yposition Zposition Zrotation Xrotation Yrotation
				End Site
				{
					OFFSET 0.000000 -8.134600 0.000000
				}
			}
		}
	}
	JOINT RightHip
	{
		OFFSET -3.115499 -0.679600 -2.320301
		CHANNELS 6 Xposition Yposition Zposition Zrotation Xrotation Yrotation
		JOINT RightKnee
		{
			OFFSET 0.000000 -0.000004 -17.680401
			CHANNELS 6 Xposition Yposition Zposition Zrotation Xrotation Yrotation
			JOINT RightAnkle
			{
				OFFSET 0.000000 0.000000 -16.993797
				CHANNELS 6 Xposition Yposition Zposition Zrotation Xrotation Yrotation
				End Site
				{
					OFFSET 0.000000 -8.842300 0.000000
				}
			}
		}
	}
}
MOTION
Frames: 9
Frame Time: 0.041667
-20.450798 35.316204 19.827999 2520.271393 -1.421351 -6.237971 -0.201599 0.334093 6.453194 -2.974075 12.222060 12.736242 0.000000 0.000007 3.568000 -10.093221 -5.379543 -2.999631 0.000004 -0.000002 8.296396 189.061999 -173.460317 173.666070 -0.000002 0.000002 2.173900 0.510315 1.973335 1.572661 1.927600 0.221406 6.048997 -14.163548 -6.788125 0.854040 4.959705 -0.000000 0.000008 146.337950 198.858294 140.192460 -0.000003 -0.000005 -8.654196 15.767688 -44.967630 26.162295 0.000000 -0.000001 -13.864103 4232.611183 -165.133921 239.753300 -3.155708 -0.764998 6.687798 39.845732 3.027481 2.251745 -3.592907 -0.000007 -0.000006 -137.561513 191.962658 219.584202 -0.000002 -0.000008 -10.352390 -126.469176 -107.236121 -115.364381 -0.000006 -0.000001 -12.750292 -117.039977 187.559358 -113.010678 2.460597 -0.518106 -2.735498 103.314828 -27.921402 103.382105 -0.000004 -0.000005 -17.005898 -337.252830 190.844638 -64.241180 -0.000005 0.000007 -19.194403 591.019110 170.785260 225.561615 -3.115495 -0.679601 -2.320302 -135.922458 -17.706248 -100.697916 -0.000006 -0.000016 -17.680405 -765.978941 218.387895 -328.896230 0.000003 -0.000002 -16.993795 980.253559 61.376599 -405.600347
-20.486498 35.424805 19.847395 2520.992442 -0.957831 -6.068455 -0.201599 0.334098 6.453202 -3.711153 12.187203 12.814816 0.000001 0.000011 3.567999 -9.638102 -5.451053 -2.935246 0.000001 -0.000000 8.296399 188.592000 -173.147058 173.438406 -0.000000 0.000003 2.173909 0.464021 1.953558 1.485669 1.927598 0.221409 6.048998 -14.359144 -6.786137 0.822213 4.959702 0.000002 0.000002 146.202467 198.797369 140.029082 -0.000001 -0.000005 -8.654196 15.788894 -45.637121 26.473769 0.000001 -0.000001 -13.864098 4232.772485 -165.311396 240.394354 -3.155704 -0.765000 6.687803 39.321433 2.802275 2.261250 -3.592901 -0.000005 0.000002 -137.217367 191.912620 219.575364 -0.000005 -0.000007 -10.352396 -125.913021 -106.994223 -114.834454 -0.000004 0.000002 -12.750298 -116.662623 189.141735 -112.703811 2.460600 -0.518106 -2.735499 103.175690 -28.008709 104.184898 -0.000003 -0.000005 -17.005898 -337.311679 189.564674 -64.371070 -0.000002 0.000002 -19.194395 591.210192 170.420596 224.591291 -3.115495 -0.679600 -2.320298 -136.066890 -17.234978 -100.941207 -0.000003 -0.000002 -17.680403 -765.988066 218.164479 -328.856478 0.000002 -0.000002 -16.993793 980.339565 61.281304 -405.785008
-20.525900 35.538803 19.868195 2521.816655 -0.314401 -5.821859 -0.201601 0.334094 6.453205 -4.505126 11.938693 12.779931 -0.000004 -0.000001 3.567998 -9.267046 -5.614276 -2.888297 0.000006 -0.000003 8.296399 188.218621 -173.015740 173.245248 -0.000001 -0.000001 2.173896 0.505345 1.967168 1.415574 1.927604 0.221396 6.049001 -14.448280 -6.689028 0.926952 4.959701 -0.000007 0.000006 145.966142 198.706404 139.664009 0.000001 0.000001 -8.654198 15.878771 -46.212845 26.857424 0.000000 -0.000005 -13.864099 4232.782539 -165.379671 240.850994 -3.155703 -0.765002 6.687799 38.837975 2.741579 1.188914 -3.592901 -0.000005 0.000002 -136.653548 191.245065 220.460229 0.000001 -0.000006 -10.352400 -125.765147 -106.440036 -114.854931 -0.000007 0.000004 -12.750298 -115.973224 190.237625 -112.862128 2.460597 -0.518107 -2.735500 103.089486 -28.083907 105.202795 -0.000006 0.000004 -17.005896 -337.446643 188.156098 -64.432152 -0.000002 0.000003 -19.194405 591.452417 170.000171 223.665992 -3.115493 -0.679604 -2.320303 -136.334852 -16.596345 -101.244557 -0.000005 -0.000005 -17.680403 -766.099316 217.958358 -328.819705 -0.000005 -0.000002 -16.993795 980.428740 61.202402 -405.947102
-20.568100 35.657600 19.890099 2522.592564 0.291722 -5.684873 -0.201598 0.334104 6.453209 -5.274697 11.709262 12.843419 0.000000 0.000004 3.567994 -8.851855 -5.766774 -2.827200 -0.000002 0.000004 8.296396 187.815818 -172.911908 173.069576 -0.000000 0.000000 2.173899 0.545332 1.963753 1.327093 1.927601 0.221399 6.048999 -14.541346 -6.582467 1.043945 4.959701 -0.000000 0.000000 145.615617 198.657896 139.148084 0.000000 -0.000003 -8.654202 15.962524 -46.667732 27.243980 0.000001 -0.000009 -13.864098 4232.640034 -165.411718 241.206601 -3.155706 -0.765010 6.687806 38.331787 2.711525 1.005926 -3.592901 -0.000010 -0.000003 -136.195120 191.223181 220.834277 0.000003 -0.000003 -10.352398 -125.160321 -106.175359 -114.606285 -0.000004 -0.000007 -12.750298 -115.745274 190.314820 -113.615074 2.460598 -0.518100 -2.735500 103.035077 -27.968091 106.154663 -0.000004 -0.000007 -17.005898 -337.727118 186.524393 -64.457711 -0.000000 0.000003 -19.194403 591.749831 169.404223 222.799036 -3.115492 -0.679600 -2.320297 -136.620804 -16.038157 -101.631801 -0.000005 -0.000007 -17.680408 -766.269142 217.772959 -328.781865 0.000000 -0.000002 -16.993790 980.512451 61.151141 -406.097694
-20.610600 35.775101 19.909794 2523.299844 0.791038 -5.576969 -0.201601 0.334102 6.453207 -5.990479 11.586249 12.927089 -0.000001 0.000001 3.567996 -8.426767 -5.923862 -2.761811 0.000002 0.000005 8.296396 187.423369 -172.830041 172.933396 -0.000001 -0.000002 2.173897 0.625332 2.006131 1.231525 1.927604 0.221410 6.048996 -14.601126 -6.496671 1.128758 4.959702 -0.000004 0.000001 145.251923 198.695831 138.601395 0.000002 -0.000007 -8.654194 15.922110 -47.048501 27.601184 0.000001 0.000002 -13.864093 4232.446821 -165.386105 241.488715 -3.155701 -0.764996 6.687796 39.315067 3.089176 0.784879 -3.592897 -0.000004 0.000005 -137.221683 191.551098 221.542459 -0.000004 0.000001 -10.352390 -124.554592 -105.856956 -114.594250 -0.000003 -0.000009 -12.750296 -115.614735 189.424997 -114.794812 2.460596 -0.518095 -2.735496 103.052344 -27.952681 106.982756 -0.000006 0.000007 -17.005898 -338.060295 184.370424 -64.310425 0.000000 -0.000000 -19.194403 592.252916 168.797306 221.749960 -3.115489 -0.679600 -2.320297 -136.913259 -15.589183 -102.013916 -0.000002 -0.000009 -17.680401 -766.521586 217.634484 -328.766757 -0.000002 -0.000004 -16.993801 980.588949 61.115010 -406.229845
-20.649099 35.885902 19.926495 2523.871394 1.260138 -5.466734 -0.201598 0.334098 6.453198 -6.566133 11.481150 12.984260 0.000004 0.000004 3.567999 -8.002190 -6.058748 -2.689787 0.000000 -0.000001 8.296397 187.076341 -172.760578 172.885502 0.000001 -0.000001 2.173897 0.661783 1.976917 1.076197 1.927598 0.221410 6.048992 -14.605029 -6.490253 1.152255 4.959700 -0.000008 0.000000 144.901767 198.758983 138.124730 0.000001 -0.000000 -8.654203 15.781820 -47.405929 27.901383 -0.000001 -0.000006 -13.864098 4232.279837 -165.358224 241.647175 -3.155705 -0.764997 6.687795 39.320556 3.130562 0.772651 -3.592903 0.000002 0.000005 -137.294985 191.707263 221.894651 -0.000003 0.000000 -10.352399 -123.802042 -105.744975 -114.422286 -0.000010 -0.000004 -12.750301 -115.602331 187.984482 -116.020612 2.460595 -0.518104 -2.735503 103.133452 -27.791502 107.742478 -0.000009 -0.000005 -17.005898 -338.846750 181.386670 -63.907983 -0.000005 0.000001 -19.194401 592.962381 168.154941 220.508641 -3.115494 -0.679602 -2.320301 -137.140554 -15.216166 -102.415709 -0.000007 -0.000011 -17.680401 -766.833261 217.563218 -328.769653 -0.000000 -0.000003 -16.993797 980.660092 61.085421 -406.350548
-20.683199 35.987007 19.941898 2524.398575 1.659015 -5.403204 -0.201598 0.334097 6.453202 -7.108253 11.418827 13.076564 0.000001 0.000006 3.567997 -7.609737 -6.163718 -2.621234 -0.000002 -0.000002 8.296397 186.743451 -172.684708 172.819960 -0.000001 0.000001 2.173900 0.717106 1.900557 0.961558 1.927601 0.221410 6.048992 -14.610205 -6.461289 1.127055 4.959701 0.000003 0.000004 144.663939 198.945898 137.698512 -0.000000 -0.000003 -8.654194 15.579537 -47.698267 28.171532 0.000003 0.000002 -13.864098 4232.208584 -165.327065 241.884866 -3.155703 -0.764999 6.687800 39.337126 3.211563 0.809255 -3.592899 0.000002 -0.000001 -137.370855 191.963641 222.221338 -0.000003 -0.000006 -10.352400 -123.024397 -105.861088 -114.299090 -0.000006 0.000002 -12.750296 -116.051184 186.371110 -117.794426 2.460599 -0.518103 -2.735499 103.212232 -27.505959 108.376210 -0.000002 -0.000005 -17.005894 -340.006025 177.654354 -63.161184 -0.000006 -0.000004 -19.194399 594.090182 167.503040 219.017993 -3.115488 -0.679605 -2.320297 -137.401140 -14.927903 -102.840171 -0.000003 -0.000004 -17.680399 -767.074121 217.532837 -328.768642 0.000000 -0.000002 -16.993797 980.717357 61.076200 -406.451963
-20.710999 36.073303 19.957096 2524.801611 1.962190 -5.295019 -0.201600 0.334095 6.453203 -7.519552 11.415703 13.114892 0.000000 0.000001 3.567999 -7.259741 -6.226297 -2.553619 -0.000003 -0.000005 8.296401 186.458454 -172.610355 172.773747 0.000001 -0.000002 2.173907 0.842816 1.774807 0.896859 1.927598 0.221404 6.049001 -14.037159 -3.922885 0.990759 4.959703 0.000002 0.000002 143.447005 201.282396 135.931761 0.000002 -0.000001 -8.654196 15.337077 -47.929469 28.380356 -0.000002 -0.000001 -13.864098 4232.263663 -165.311205 242.254843 -3.155706 -0.765009 6.687799 39.266211 3.148733 1.845096 -3.592901 -0.000010 0.000005 -137.490205 192.823480 221.661796 -0.000002 -0.000006 -10.352390 -122.397181 -106.168092 -114.354087 -0.000004 -0.000003 -12.750299 -116.548804 184.640804 -119.157513 2.460600 -0.518108 -2.735500 103.348323 -27.292203 108.853012 0.000002 -0.000006 -17.005896 -341.439818 173.382672 -62.081850 -0.000006 0.000002 -19.194401 595.764616 167.084363 217.624826 -3.115497 -0.679599 -2.320305 -137.606250 -14.634145 -103.206617 -0.000005 -0.000004 -17.680393 -767.200397 217.553027 -328.792493 0.000001 -0.000003 -16.993795 980.747191 61.089301 -406.510538
-20.730400 36.138905 19.973095 2525.101921 2.183547 -5.143163 -0.201597 0.334099 6.453199 -7.817618 11.434143 13.093240 0.000002 0.000004 3.567998 -6.979901 -6.272368 -2.501312 0.000002 -0.000008 8.296398 186.244943 -172.594837 172.750715 -0.000002 -0.000005 2.173897 0.774536 1.612635 0.736174 1.927602 0.221396 6.048997 -14.099393 -4.141469 0.881057 4.959700 -0.000002 0.000008 143.625559 201.268217 135.959915 0.000000 0.000001 -8.654200 15.283083 -48.126773 28.611616 0.000001 0.000003 -13.864098 4232.320490 -165.308582 242.618319 -3.155704 -0.765007 6.687801 39.195215 3.115963 1.797843 -3.592905 -0.000006 0.000001 -137.418133 192.961341 221.825597 -0.000003 -0.000002 -10.352388 -121.922128 -106.564748 -114.408408 0.000001 -0.000010 -12.750299 -117.225963 183.007488 -119.330221 2.460600 -0.518102 -2.735498 103.538892 -27.048251 109.173033 -0.000001 0.000001 -17.005901 -343.098925 169.175508 -60.754724 -0.000006 0.000001 -19.194399 597.945796 166.997948 216.638998 -3.115495 -0.679600 -2.320294 -137.754493 -14.436747 -103.497604 -0.000005 -0.000003 -17.680397 -767.253782 217.597055 -328.804924 0.000003 -0.000003 -16.993792 980.746972 61.143252 -406.495512
